<?xml version="1.0" standalone="no"?>
<!DOCTYPE svg PUBLIC "-//W3C//DTD SVG 20010904//EN"
 "http://www.w3.org/TR/2001/REC-SVG-20010904/DTD/svg10.dtd">
<svg version="1.0" xmlns="http://www.w3.org/2000/svg"
 width="512.000000pt" height="512.000000pt" viewBox="0 0 512.000000 512.000000"
 preserveAspectRatio="xMidYMid meet">
<metadata>
Created by potrace 1.16, written by Peter Selinger 2001-2019
</metadata>
<g transform="translate(0.000000,512.000000) scale(0.100000,-0.100000)"
fill="#000000" stroke="none">
<path d="M2270 4859 c-35 -5 -69 -14 -75 -18 -5 -5 -26 -12 -45 -16 -19 -4
-41 -11 -50 -15 -8 -5 -42 -21 -75 -37 -184 -87 -302 -220 -321 -363 -6 -43
-4 -49 16 -60 36 -19 66 3 73 55 16 114 116 217 291 299 75 35 111 47 211 68
61 13 272 5 288 -11 6 -6 17 -11 25 -11 24 0 134 -56 202 -102 36 -24 87 -59
113 -78 84 -57 139 -72 256 -72 109 1 141 13 141 53 0 29 -19 34 -125 34 -116
0 -172 16 -249 73 -28 20 -53 39 -56 42 -11 13 -118 78 -160 98 -128 61 -307
84 -460 61z M1544 4411 c-156 -44 -256 -157 -286 -321 -15 -79 -1 -166 40
-254 l30 -64 -24 -36 c-37 -55 -55 -146 -44 -230 15 -114 44 -179 114 -251 37
-38 66 -44 90 -19 18 17 10 40 -26 78 -87 94 -110 259 -52 383 29 62 30 94 4
150 -22 49 -50 154 -50 188 0 13 4 34 9 47 5 13 14 41 20 64 12 46 74 122 126
154 19 12 62 25 96 30 65 9 89 23 89 50 0 19 -40 51 -62 49 -7 0 -41 -8 -74
-18z M3450 4311 c-16 -31 -3 -47 70 -90 37 -23 81 -58 97 -78 65 -85 67 -90
71 -218 4 -113 6 -122 31 -155 54 -68 66 -107 65 -210 -1 -83 -5 -104 -32
-170 -37 -87 -40 -115 -13 -130 29 -15 49 -3 74 49 53 104 74 211 62 316 -5
48 -17 81 -51 141 -42 75 -44 80 -38 138 7 72 -15 168 -53 233 -48 82 -193
193 -251 193 -12 0 -26 -9 -32 -19z M2027 4266 c-64 -17 -131 -76 -194 -170
-57 -84 -66 -123 -33 -144 28 -17 49 -1 80 61 52 105 143 177 223 177 85 0
132 -42 207 -185 82 -157 172 -250 303 -314 133 -65 182 -76 343 -76 126 0
144 2 163 19 23 21 26 33 11 56 -8 12 -31 14 -127 12 -237 -7 -427 73 -548
229 -22 29 -32 45 -77 127 -73 137 -131 195 -210 212 -61 13 -81 12 -141 -4z
M1608 3803 c-63 -73 -104 -204 -114 -368 -7 -105 4 -145 38 -145 40 0 45 12
51 115 9 155 50 317 87 340 17 11 11 54 -9 65 -27 14 -36 13 -53 -7z M3135
3517 c-14 -11 -17 -23 -13 -64 3 -28 10 -57 16 -64 6 -8 28 -34 49 -58 34 -39
38 -50 41 -112 3 -50 9 -72 23 -85 18 -16 20 -16 39 1 24 22 34 72 26 129 -5
31 -21 62 -55 106 -28 36 -51 78 -54 97 -10 59 -35 76 -72 50z M2595 3453
c-11 -2 -41 -13 -67 -25 -40 -18 -48 -26 -48 -48 0 -49 33 -62 85 -33 22 12
56 17 130 17 89 1 106 -2 158 -27 68 -32 100 -25 95 21 -4 32 -51 66 -121 87
-47 14 -183 19 -232 8z M1803 3396 c-85 -27 -149 -80 -138 -115 10 -33 48 -36
91 -7 59 38 155 52 227 33 53 -14 59 -14 79 3 19 15 21 21 11 43 -23 49 -173
73 -270 43z M3482 3234 c-57 -28 -102 -79 -123 -137 -11 -33 -11 -39 3 -53 23
-24 63 -11 77 25 7 15 28 43 46 61 29 28 42 34 84 34 68 1 105 -34 122 -113
12 -57 0 -200 -19 -225 -5 -6 -15 -27 -22 -46 -20 -51 -76 -118 -129 -151 -40
-25 -56 -29 -118 -29 -46 0 -75 -4 -80 -12 -4 -7 -8 -35 -9 -63 -2 -27 -10
-99 -20 -160 -14 -83 -18 -171 -18 -355 -1 -249 11 -375 40 -431 8 -15 11 -36
8 -46 -36 -112 -137 -279 -204 -336 -69 -59 -210 -122 -365 -163 -101 -27
-384 -27 -470 0 -125 39 -165 59 -219 111 -64 62 -70 87 -40 152 20 44 4 76
-34 71 -21 -2 -33 -14 -52 -53 -22 -45 -25 -62 -25 -170 0 -140 10 -177 90
-336 78 -154 85 -204 59 -471 -7 -67 -7 -67 21 -74 17 -4 31 -2 40 7 19 19 37
124 42 248 6 125 -5 168 -82 326 -58 121 -85 194 -84 228 0 12 3 16 6 10 11
-30 134 -97 231 -127 147 -46 393 -46 567 -1 55 15 113 33 129 41 16 8 32 12
34 9 3 -3 1 -5 -5 -5 -15 0 -117 -138 -156 -212 -36 -67 -114 -305 -147 -446
-14 -61 -3 -85 38 -80 35 4 36 8 97 238 30 115 85 261 105 280 3 3 20 28 37
55 18 28 43 61 55 75 254 278 347 409 404 571 30 86 29 167 -4 223 -30 50 -48
290 -33 434 29 271 33 306 42 331 6 14 11 28 12 31 0 3 26 10 58 17 71 14 123
47 182 114 90 102 137 226 137 356 0 83 -20 146 -61 196 -65 79 -155 97 -247
51z M2693 3168 c-47 -22 -50 -113 -5 -148 42 -33 84 -25 108 22 21 40 11 91
-23 118 -28 22 -47 24 -80 8z M1872 3097 c-48 -51 -11 -150 56 -150 64 0 96
90 51 147 -27 34 -77 36 -107 3z M2190 3080 c-7 -14 -7 -33 1 -65 19 -74 0
-189 -49 -295 -39 -86 -10 -148 84 -175 95 -28 164 -14 164 32 0 30 -18 40
-87 48 -98 11 -102 17 -64 110 53 131 63 282 23 343 -18 27 -58 29 -72 2z
M1520 3013 c-21 -15 -21 -20 -17 -137 2 -66 9 -155 16 -196 12 -85 51 -250 61
-265 4 -5 13 -34 20 -63 6 -28 16 -55 21 -58 5 -3 9 -14 9 -25 0 -29 114 -244
162 -307 63 -81 135 -149 203 -189 33 -20 61 -37 61 -37 1 -1 5 -26 8 -57 l7
-57 -33 -6 c-53 -10 -184 -101 -266 -186 -48 -50 -112 -138 -112 -156 0 -6
-51 -28 -112 -48 -255 -85 -495 -194 -597 -270 -19 -14 -162 -158 -179 -179
-42 -55 -122 -241 -122 -285 0 -10 11 -24 24 -31 35 -19 59 -1 75 56 17 62 71
171 108 220 95 126 240 220 502 325 110 44 222 80 228 75 2 -3 -2 -16 -10 -29
-17 -26 -79 -205 -98 -285 -10 -43 -10 -57 0 -77 36 -66 122 -52 351 58 47 22
33 76 -20 76 -27 0 -58 -11 -162 -59 -68 -31 -81 -28 -73 11 9 41 42 143 59
183 7 17 24 57 37 90 13 33 26 62 29 65 3 3 19 32 35 65 40 80 199 240 275
277 l55 26 3 -56 c2 -31 -2 -84 -9 -116 -11 -54 -11 -60 6 -72 24 -18 29 -18
54 4 14 11 24 39 32 82 21 117 22 142 9 232 -6 49 -10 91 -8 93 2 2 33 -3 68
-11 70 -16 190 -14 291 5 187 36 415 172 534 320 66 82 73 111 34 132 -19 10
-29 3 -101 -75 -173 -187 -329 -270 -554 -296 -302 -34 -507 91 -657 400 -102
210 -177 520 -177 731 0 100 -24 134 -70 102z M2576 2372 c-9 -15 -117 -50
-189 -62 -48 -7 -93 -7 -158 1 -69 8 -93 8 -105 -1 -54 -46 48 -99 193 -100
73 0 193 30 264 67 42 22 50 30 47 51 -3 26 -42 59 -52 44z M3390 1785 c-21
-25 -6 -49 50 -78 60 -30 107 -72 212 -191 l71 -79 -7 -81 c-6 -73 -32 -195
-47 -221 -3 -5 -12 -32 -19 -60 -16 -56 -113 -259 -135 -282 -8 -8 -15 -19
-15 -24 0 -13 -41 -11 -70 4 -155 83 -243 127 -254 127 -21 0 -47 -35 -40 -54
4 -9 30 -29 58 -43 28 -14 69 -38 91 -53 56 -38 169 -90 195 -90 34 0 57 17
98 73 48 67 101 168 145 282 36 91 77 233 77 267 0 22 -3 23 67 -6 32 -13 121
-47 198 -76 194 -72 285 -113 389 -173 111 -64 220 -168 270 -258 36 -66 96
-227 96 -259 0 -26 35 -53 59 -45 30 9 42 37 31 71 -50 160 -66 202 -92 252
-54 101 -152 207 -267 286 -82 58 -261 140 -451 209 -30 11 -64 23 -75 28 -11
5 -56 22 -100 38 -44 16 -88 32 -97 36 -11 4 -18 18 -18 32 0 48 -36 99 -155
219 -145 146 -228 193 -265 149z M1878 521 c-44 -40 -46 -95 -4 -134 37 -35
70 -34 107 2 21 22 29 39 29 66 0 27 -8 44 -29 66 -37 37 -62 37 -103 0z"/>
</g>
</svg>
